REM DIRINDEX 1\6,1\2\7,1\2\8,1\2\9,1\3\10,1\3\11,1\4\12,1\4\13,1\4\14,1\5\15,1\5\16,1\5\17
REM DIRNAME folder01,folder02,folder03,folder04,folder05,folder06,folder07,folder08,folder09,folder10,folder11,folder12,folder13,folder14,folder15,folder16,folder17
TITLE ""
FILE "3Q_t2_0361-0375.mp3" MP3
  TRACK 01 AUDIO
    TITLE "6:cjc041_4497"
    INDEX 01 00:00:00
  TRACK 02 AUDIO
    TITLE "0:"
    INDEX 01 00:07:64
  TRACK 03 AUDIO
    TITLE "7:cjc041_4498"
    INDEX 01 00:09:06
  TRACK 04 AUDIO
    TITLE "0:"
    INDEX 01 00:10:10
  TRACK 05 AUDIO
    TITLE "8:cjc041_4499"
    INDEX 01 00:10:68
  TRACK 06 AUDIO
    TITLE "0:"
    INDEX 01 00:13:28
  TRACK 07 AUDIO
    TITLE "9:cjc041_4500"
    INDEX 01 00:14:07
  TRACK 08 AUDIO
    TITLE "0:"
    INDEX 01 00:15:11
  TRACK 09 AUDIO
    TITLE "7:cjc041_4501"
    INDEX 01 00:16:67
  TRACK 10 AUDIO
    TITLE "0:"
    INDEX 01 00:18:17
  TRACK 11 AUDIO
    TITLE "8:cjc041_4502"
    INDEX 01 00:18:68
  TRACK 12 AUDIO
    TITLE "0:"
    INDEX 01 00:20:14
  TRACK 13 AUDIO
    TITLE "9:cjc041_4503"
    INDEX 01 00:20:69
  TRACK 14 AUDIO
    TITLE "0:"
    INDEX 01 00:22:17
  TRACK 15 AUDIO
    TITLE "7:cjc041_4504"
    INDEX 01 00:24:02
  TRACK 16 AUDIO
    TITLE "0:"
    INDEX 01 00:25:29
  TRACK 17 AUDIO
    TITLE "8:cjc041_4505"
    INDEX 01 00:26:11
  TRACK 18 AUDIO
    TITLE "0:"
    INDEX 01 00:27:47
  TRACK 19 AUDIO
    TITLE "9:cjc041_4506"
    INDEX 01 00:28:23
  TRACK 20 AUDIO
    TITLE "0:"
    INDEX 01 00:29:50
  TRACK 21 AUDIO
    TITLE "7:cjc041_4507"
    INDEX 01 00:31:26
  TRACK 22 AUDIO
    TITLE "0:"
    INDEX 01 00:32:41
  TRACK 23 AUDIO
    TITLE "8:cjc041_4508"
    INDEX 01 00:33:19
  TRACK 24 AUDIO
    TITLE "0:"
    INDEX 01 00:34:47
  TRACK 25 AUDIO
    TITLE "9:cjc041_4509"
    INDEX 01 00:35:25
  TRACK 26 AUDIO
    TITLE "0:"
    INDEX 01 00:36:44
  TRACK 27 AUDIO
    TITLE "7:cjc041_4510"
    INDEX 01 00:38:28
  TRACK 28 AUDIO
    TITLE "0:"
    INDEX 01 00:39:47
  TRACK 29 AUDIO
    TITLE "8:cjc041_4511"
    INDEX 01 00:40:30
  TRACK 30 AUDIO
    TITLE "0:"
    INDEX 01 00:41:38
  TRACK 31 AUDIO
    TITLE "9:cjc041_4512"
    INDEX 01 00:42:19
  TRACK 32 AUDIO
    TITLE "0:"
    INDEX 01 00:43:39
  TRACK 33 AUDIO
    TITLE "7:cjc041_4513"
    INDEX 01 00:45:22
  TRACK 34 AUDIO
    TITLE "0:"
    INDEX 01 00:46:29
  TRACK 35 AUDIO
    TITLE "8:cjc041_4514"
    INDEX 01 00:47:17
  TRACK 36 AUDIO
    TITLE "0:"
    INDEX 01 00:48:20
  TRACK 37 AUDIO
    TITLE "9:cjc041_4515"
    INDEX 01 00:48:73
  TRACK 38 AUDIO
    TITLE "0:"
    INDEX 01 00:50:11
  TRACK 39 AUDIO
    TITLE "7:cjc041_4516"
    INDEX 01 00:51:71
  TRACK 40 AUDIO
    TITLE "0:"
    INDEX 01 00:53:04
  TRACK 41 AUDIO
    TITLE "8:cjc041_4517"
    INDEX 01 00:53:55
  TRACK 42 AUDIO
    TITLE "0:"
    INDEX 01 00:56:31
  TRACK 43 AUDIO
    TITLE "9:cjc041_4518"
    INDEX 01 00:57:11
  TRACK 44 AUDIO
    TITLE "0:"
    INDEX 01 00:58:20
  TRACK 45 AUDIO
    TITLE "7:cjc041_4519"
    INDEX 01 01:00:00
  TRACK 46 AUDIO
    TITLE "0:"
    INDEX 01 01:01:01
  TRACK 47 AUDIO
    TITLE "8:cjc041_4520"
    INDEX 01 01:01:56
  TRACK 48 AUDIO
    TITLE "0:"
    INDEX 01 01:02:59
  TRACK 49 AUDIO
    TITLE "9:cjc041_4521"
    INDEX 01 01:03:35
  TRACK 50 AUDIO
    TITLE "0:"
    INDEX 01 01:04:37
  TRACK 51 AUDIO
    TITLE "7:cjc041_4522"
    INDEX 01 01:06:22
  TRACK 52 AUDIO
    TITLE "0:"
    INDEX 01 01:07:41
  TRACK 53 AUDIO
    TITLE "8:cjc041_4523"
    INDEX 01 01:08:15
  TRACK 54 AUDIO
    TITLE "0:"
    INDEX 01 01:09:32
  TRACK 55 AUDIO
    TITLE "9:cjc041_4524"
    INDEX 01 01:10:08
  TRACK 56 AUDIO
    TITLE "0:"
    INDEX 01 01:11:29
  TRACK 57 AUDIO
    TITLE "7:cjc041_4525"
    INDEX 01 01:13:10
  TRACK 58 AUDIO
    TITLE "0:"
    INDEX 01 01:14:19
  TRACK 59 AUDIO
    TITLE "8:cjc041_4526"
    INDEX 01 01:14:70
  TRACK 60 AUDIO
    TITLE "0:"
    INDEX 01 01:16:14
  TRACK 61 AUDIO
    TITLE "9:cjc041_4527"
    INDEX 01 01:16:61
  TRACK 62 AUDIO
    TITLE "0:"
    INDEX 01 01:17:65
  TRACK 63 AUDIO
    TITLE "7:cjc041_4528"
    INDEX 01 01:19:44
  TRACK 64 AUDIO
    TITLE "0:"
    INDEX 01 01:21:08
  TRACK 65 AUDIO
    TITLE "8:cjc041_4529"
    INDEX 01 01:21:57
  TRACK 66 AUDIO
    TITLE "0:"
    INDEX 01 01:24:20
  TRACK 67 AUDIO
    TITLE "9:cjc041_4530"
    INDEX 01 01:24:69
  TRACK 68 AUDIO
    TITLE "0:"
    INDEX 01 01:26:32
  TRACK 69 AUDIO
    TITLE "7:cjc041_4531"
    INDEX 01 01:28:08
  TRACK 70 AUDIO
    TITLE "0:"
    INDEX 01 01:29:23
  TRACK 71 AUDIO
    TITLE "8:cjc041_4532"
    INDEX 01 01:29:72
  TRACK 72 AUDIO
    TITLE "0:"
    INDEX 01 01:32:35
  TRACK 73 AUDIO
    TITLE "9:cjc041_4533"
    INDEX 01 01:33:05
  TRACK 74 AUDIO
    TITLE "0:"
    INDEX 01 01:34:20
  TRACK 75 AUDIO
    TITLE "7:cjc041_4534"
    INDEX 01 01:35:73
  TRACK 76 AUDIO
    TITLE "0:"
    INDEX 01 01:37:19
  TRACK 77 AUDIO
    TITLE "8:cjc041_4535"
    INDEX 01 01:37:68
  TRACK 78 AUDIO
    TITLE "0:"
    INDEX 01 01:38:53
  TRACK 79 AUDIO
    TITLE "9:cjc041_4536"
    INDEX 01 01:39:33
  TRACK 80 AUDIO
    TITLE "0:"
    INDEX 01 01:40:56
  TRACK 81 AUDIO
    TITLE "7:cjc041_4537"
    INDEX 01 01:42:35
  TRACK 82 AUDIO
    TITLE "0:"
    INDEX 01 01:43:54
  TRACK 83 AUDIO
    TITLE "8:cjc041_4538"
    INDEX 01 01:44:30
  TRACK 84 AUDIO
    TITLE "0:"
    INDEX 01 01:46:35
  TRACK 85 AUDIO
    TITLE "9:cjc041_4539"
    INDEX 01 01:47:09
  TRACK 86 AUDIO
    TITLE "0:"
    INDEX 01 01:48:28
  TRACK 87 AUDIO
    TITLE "7:cjc041_4540"
    INDEX 01 01:50:04
  TRACK 88 AUDIO
    TITLE "0:"
    INDEX 01 01:51:19
  TRACK 89 AUDIO
    TITLE "8:cjc041_4541"
    INDEX 01 01:52:00
  TRACK 90 AUDIO
    TITLE "0:"
    INDEX 01 01:57:13
  TRACK 91 AUDIO
    TITLE "9:cjc041_4542"
    INDEX 01 01:57:70
  TRACK 92 AUDIO
    TITLE "0:"
    INDEX 01 01:59:10
